<svg preserveAspectRatio="none" width="100%" height="100%" overflow="visible" style="display: block;" viewBox="0 0 21 21" fill="none" xmlns="http://www.w3.org/2000/svg">
<path id="Vector" d="M0 11.6L3.8 7.8C4.2 7.4 4.8 7.4 5.2 7.8L8.5 11.05L14.1 5.5H9.5C8.95 5.5 8.5 5.05 8.5 4.5C8.5 3.95 8.95 3.5 9.5 3.5H16.5C17.05 3.5 17.5 3.95 17.5 4.5V11.5C17.5 12.05 17.05 12.5 16.5 12.5C15.95 12.5 15.5 12.05 15.5 11.5V6.9L9.25 13.2C8.85 13.6 8.25 13.6 7.85 13.2L4.5 9.9L0 14.4V21H3.5V18C3.5 17.45 3.95 17 4.5 17C5.05 17 5.5 17.45 5.5 18V21H9.5V18C9.5 17.45 9.95 17 10.5 17C11.05 17 11.5 17.45 11.5 18V21H15.5V18C15.5 17.45 15.95 17 16.5 17C17.05 17 17.5 17.45 17.5 18V21H21V0H0V11.6Z" fill="var(--fill-0, #04E1CB)"/>
</svg>
