<svg preserveAspectRatio="none" width="100%" height="100%" overflow="visible" style="display: block;" viewBox="0 0 13.5692 13.5688" fill="none" xmlns="http://www.w3.org/2000/svg">
<path id="Icon" fill-rule="evenodd" clip-rule="evenodd" d="M13.078 0H12.1571C11.9115 0 11.6966 0.215378 11.6966 0.461524V2.6153C11.6966 2.89221 11.5432 3.01529 11.3283 2.83068C11.2362 2.7076 11.1441 2.6153 11.0213 2.523C9.48645 0.984583 7.33765 0.338451 5.12746 0.769206C4.36003 0.923047 3.6233 1.23073 2.97867 1.66148C1.10614 2.89221 0.0317454 4.89215 0.0010483 7.04593C-0.0296488 8.70741 0.61499 10.3689 1.78148 11.5689C3.00936 12.8611 4.66701 13.5688 6.44744 13.5688C8.01299 13.5688 9.48645 13.015 10.6529 12.0304C10.8678 11.8458 10.8678 11.5381 10.6836 11.3535L10.039 10.7073C9.88551 10.5535 9.60924 10.5227 9.42505 10.6766C8.31996 11.5996 6.8158 11.9688 5.31164 11.5996C4.91258 11.5073 4.51352 11.3227 4.14516 11.1073C2.39542 10.0304 1.5666 7.99974 2.05775 5.96904C2.14984 5.56905 2.33403 5.16906 2.54891 4.79984C3.40843 3.2922 4.91258 2.46146 6.50883 2.46146C7.73671 2.46146 8.9032 2.95375 9.76272 3.81526C9.91621 3.93833 10.039 4.09218 10.1311 4.24602C10.2232 4.49216 10.0083 4.61524 9.73203 4.61524H7.58323C7.33765 4.61524 7.12277 4.83061 7.12277 5.07676V6.03057C7.12277 6.27672 7.30696 6.46133 7.55253 6.46133H13.1701C13.385 6.46133 13.5692 6.27672 13.5692 6.06134V0.461524C13.5385 0.215378 13.3236 0 13.078 0V0Z" fill="var(--fill-0, #747474)"/>
</svg>
