<svg preserveAspectRatio="none" width="100%" height="100%" overflow="visible" style="display: block;" viewBox="0 0 25 25" fill="none" xmlns="http://www.w3.org/2000/svg">
<path id="Vector" d="M24 0H1C0.45 0 0 0.45 0 1V24C0 24.55 0.45 25 1 25H24C24.55 25 25 24.55 25 24V1C25 0.45 24.55 0 24 0ZM23 23H19.5V20C19.5 19.45 19.05 19 18.5 19C17.95 19 17.5 19.45 17.5 20V23H13.5V20C13.5 19.45 13.05 19 12.5 19C11.95 19 11.5 19.45 11.5 20V23H7.5V20C7.5 19.45 7.05 19 6.5 19C5.95 19 5.5 19.45 5.5 20V23H2V16.4V13.6V2H23V23Z" fill="var(--fill-0, #0B827C)"/>
</svg>
