<svg preserveAspectRatio="none" width="100%" height="100%" overflow="visible" style="display: block;" viewBox="0 0 18.4466 18.48" fill="none" xmlns="http://www.w3.org/2000/svg">
<path id="Icon" fill-rule="evenodd" clip-rule="evenodd" d="M18.3069 16.653L13.153 11.5377C14.1915 10.0761 14.73 8.22997 14.4607 6.26843C13.9992 2.96073 11.3069 0.345349 7.96074 0.0376571C3.42228 -0.423881 -0.423875 3.42227 0.0376634 7.9992C0.345356 11.3069 2.96074 14.0377 6.26843 14.4992C8.22997 14.7684 10.0761 14.23 11.5377 13.1915L16.653 18.3069C16.8838 18.5377 17.23 18.5377 17.4607 18.3069L18.2684 17.4992C18.4992 17.2684 18.4992 16.8838 18.3069 16.653V16.653ZM2.30689 7.26843C2.30689 4.53766 4.53766 2.30689 7.26843 2.30689C9.9992 2.30689 12.23 4.53766 12.23 7.26843C12.23 9.9992 9.9992 12.23 7.26843 12.23C4.53766 12.23 2.30689 10.0377 2.30689 7.26843H2.30689Z" fill="var(--fill-0, #AAB6C5)"/>
</svg>
