<svg preserveAspectRatio="none" width="100%" height="100%" overflow="visible" style="display: block;" viewBox="0 0 3.23077 12.9229" fill="none" xmlns="http://www.w3.org/2000/svg">
<path id="Icon" fill-rule="evenodd" clip-rule="evenodd" d="M5.96046e-08 11.3075C5.96046e-08 10.419 0.726923 9.69212 1.61538 9.69212C2.50385 9.69212 3.23077 10.419 3.23077 11.3075C3.23077 12.196 2.50385 12.9229 1.61538 12.9229C0.726923 12.9229 5.96046e-08 12.196 5.96046e-08 11.3075ZM5.96046e-08 6.46038C5.96046e-08 5.57192 0.726923 4.84499 1.61538 4.84499C2.50385 4.84499 3.23077 5.57192 3.23077 6.46038C3.23077 7.34884 2.50385 8.07577 1.61538 8.07577C0.726923 8.07577 5.96046e-08 7.34884 5.96046e-08 6.46038ZM0 1.61539C0 0.726924 0.726923 0 1.61538 0C2.50385 0 3.23077 0.726924 3.23077 1.61539C3.23077 2.50385 2.50385 3.23077 1.61538 3.23077C0.726923 3.23077 0 2.50385 0 1.61539Z" fill="var(--fill-0, #747474)"/>
</svg>
