<svg preserveAspectRatio="none" width="100%" height="100%" overflow="visible" style="display: block;" viewBox="0 0 14.7692 14.7692" fill="none" xmlns="http://www.w3.org/2000/svg">
<path id="Icon" fill-rule="evenodd" clip-rule="evenodd" d="M14.3692 0H8.49227C8.24612 0 7.99996 0.153845 7.99996 0.399998V1.32307C7.99996 1.56922 8.21535 1.84614 8.49227 1.84614H10.923C11.2 1.84614 11.3538 2.15384 11.1384 2.33845L5.90767 7.56919C5.72305 7.75381 5.72305 8.03073 5.90767 8.21534L6.55382 8.86149C6.73843 9.04611 7.01535 9.04611 7.19997 8.86149L12.4307 3.63075C12.6153 3.44614 12.923 3.56921 12.923 3.84613V6.27689C12.923 6.52304 13.1692 6.79997 13.4153 6.79997H14.3076C14.5538 6.79997 14.7692 6.52304 14.7692 6.27689V0.430767C14.7692 0.153845 14.6153 0 14.3692 0V0ZM10.5538 7.23078L9.50766 8.30769C9.32304 8.49231 9.23073 8.70769 9.23073 8.95384V12.4615C9.23073 12.7077 9.01535 12.9231 8.7692 12.9231H2.30768C2.06153 12.9231 1.84615 12.7077 1.84615 12.4615V6.00001C1.84615 5.75386 2.06153 5.53848 2.30768 5.53848H5.84613C6.09228 5.53848 6.33844 5.44617 6.49228 5.26156L7.53843 4.21541C7.72305 4.03079 7.59997 3.69233 7.32305 3.69233H1.23076C0.553844 3.69233 0 4.24618 0 4.9231V13.5384C0 14.2154 0.553844 14.7692 1.23076 14.7692H9.84612C10.523 14.7692 11.0769 14.2154 11.0769 13.5384V7.44616C11.0769 7.16924 10.7384 7.04616 10.5538 7.23078Z" fill="var(--fill-0, #0176D3)"/>
</svg>
