<svg preserveAspectRatio="none" width="100%" height="100%" overflow="visible" style="display: block;" viewBox="0 0 14.7692 14.7692" fill="none" xmlns="http://www.w3.org/2000/svg">
<path id="Icon" fill-rule="evenodd" clip-rule="evenodd" d="M7.38462 0C3.29231 0 0 3.29231 0 7.38462C0 11.4769 3.29231 14.7692 7.38462 14.7692C11.4769 14.7692 14.7692 11.4769 14.7692 7.38462C14.7692 3.29231 11.4769 0 7.38462 0ZM7.38479 3.7231C7.90787 3.7231 8.30787 4.1231 8.30787 4.64618C8.30787 5.16925 7.90787 5.56925 7.38479 5.56925C6.86172 5.56925 6.46172 5.16925 6.46172 4.64618C6.46172 4.1231 6.86172 3.7231 7.38479 3.7231V3.7231ZM8.92312 10.1846C8.92312 10.3385 8.80004 10.4615 8.61542 10.4615H6.15388C6.00004 10.4615 5.84619 10.3692 5.84619 10.1846V9.56924C5.84619 9.41539 5.96927 9.23078 6.15388 9.23078C6.30773 9.23078 6.46158 9.13847 6.46158 8.95386V7.72309C6.46158 7.56924 6.3385 7.38462 6.15388 7.38462C6.00004 7.38462 5.84619 7.29232 5.84619 7.1077V6.49232C5.84619 6.33847 5.96927 6.15385 6.15388 6.15385H8.00004C8.15388 6.15385 8.30773 6.3077 8.30773 6.49232V8.95386C8.30773 9.1077 8.43081 9.23078 8.61542 9.23078C8.76927 9.23078 8.92312 9.38462 8.92312 9.56924V10.1846Z" fill="var(--fill-0, #747474)"/>
</svg>
