<svg preserveAspectRatio="none" width="100%" height="100%" overflow="visible" style="display: block;" viewBox="0 0 11.0769 11.0769" fill="none" xmlns="http://www.w3.org/2000/svg">
<path id="Icon" fill-rule="evenodd" clip-rule="evenodd" d="M10.7769 0H6.3692C6.18459 0 5.99997 0.115384 5.99997 0.299998V0.992303C5.99997 1.17692 6.16151 1.38461 6.3692 1.38461H8.19227C8.39997 1.38461 8.51535 1.61538 8.35381 1.75384L4.43075 5.67689C4.29229 5.81536 4.29229 6.02305 4.43075 6.16151L4.91536 6.64612C5.05382 6.78458 5.26152 6.78458 5.39998 6.64612L9.32304 2.72306C9.4615 2.5846 9.69227 2.67691 9.69227 2.8846V4.70767C9.69227 4.89228 9.87688 5.09997 10.0615 5.09997H10.7307C10.9153 5.09997 11.0769 4.89228 11.0769 4.70767V0.323075C11.0769 0.115384 10.9615 0 10.7769 0V0ZM7.91535 5.42308L7.13074 6.23077C6.99228 6.36923 6.92305 6.53077 6.92305 6.71538V9.34614C6.92305 9.53075 6.76151 9.69229 6.5769 9.69229H1.73076C1.54615 9.69229 1.38461 9.53075 1.38461 9.34614V4.50001C1.38461 4.3154 1.54615 4.15386 1.73076 4.15386H4.3846C4.56921 4.15386 4.75383 4.08463 4.86921 3.94617L5.65382 3.16156C5.79229 3.02309 5.69998 2.76925 5.49229 2.76925H0.923073C0.415383 2.76925 0 3.18463 0 3.69232V10.1538C0 10.6615 0.415383 11.0769 0.923073 11.0769H7.38459C7.89228 11.0769 8.30766 10.6615 8.30766 10.1538V5.58462C8.30766 5.37693 8.05381 5.28462 7.91535 5.42308Z" fill="var(--fill-0, #0B5CAB)"/>
</svg>
